<?xml version="1.0" encoding="UTF-8"?>
<svg width="168px" height="18px" viewBox="0 0 168 18" version="1.1" xmlns="http://www.w3.org/2000/svg" xmlns:xlink="http://www.w3.org/1999/xlink">
    <!-- Generator: Sketch 46.2 (44496) - http://www.bohemiancoding.com/sketch -->
    <title>Logo</title>
    <desc>Created with Sketch.</desc>
    <defs></defs>
    <g id="Choreographer" stroke="none" stroke-width="1" fill="none" fill-rule="evenodd">
        <g transform="translate(-52.000000, -49.000000)" id="Top" fill="#231F20">
            <g transform="translate(0.000000, -89.000000)">
                <g id="Logo" transform="translate(52.000000, 138.000000)">
                    <g>
                        <polygon id="Shape" fill-rule="nonzero" points="0 17 2.93527638 17 8.45386935 5.70908355 13.9690452 17 17 17 8.31718593 0"></polygon>
                        <polygon id="Shape" fill-rule="nonzero" points="94.0245251 1 94.0245251 10.7710692 82 1 82 17 84.9754749 17 84.9754749 7.17190776 97 16.9698113 97 1"></polygon>
                        <polygon id="Shape" fill-rule="nonzero" points="128.742252 4 126.257748 4 126.218254 4 123.626039 10.6592593 121.037415 4.04814815 118 4.04814815 123.626039 18 127.5 8.39259259 131.305745 18 137 4.04814815 133.966175 4.04814815 131.37037 10.6592593 128.778156 4"></polygon>
                        <polygon id="Shape" fill-rule="nonzero" points="156 0 156 17 158.937611 17 158.937611 13.4838191 160.737968 11.6898492 164.606061 17 168 17 162.730838 9.71477387 167.832442 4.70190955 164.26025 4.70190955 158.937611 10.1521608 158.937611 0"></polygon>
                        <rect id="Rectangle-path" fill-rule="nonzero" x="3" y="12" width="10" height="3"></rect>
                        <path d="M151.989054,16.7419015 L149.40225,15.4514088 C148.26391,16.5361202 146.352083,17 144.681058,17 C142.192764,17 140,15.6467266 140,13.1354976 L140,13.090156 C140,10.2999015 142.265734,8.9780185 145.323199,8.9780185 C146.561259,8.9543567 147.794658,9.13003826 148.971724,9.49770339 L148.971724,9.25355613 C148.971724,7.50964711 147.822438,6.56444842 145.735482,6.56444842 C144.440905,6.56977658 143.162344,6.83848 141.984798,7.35269529 L141.160231,5.04724757 C142.722009,4.33750324 144.433233,3.97954923 146.162359,4.00090216 C150.040742,4.00090216 151.930678,5.95408026 151.930678,9.3058734 L151.930678,16.7419015 L152,16.7419015 L151.989054,16.7419015 Z M149.008209,11.4857597 C148.043344,11.1516228 147.024392,10.982784 145.998176,10.9870017 C144.111888,10.9870017 142.995439,11.7264191 142.995439,12.9401798 L142.995439,12.9855214 C142.995439,14.1748674 144.10824,14.8410406 145.527516,14.8410406 C147.519611,14.8410406 149.008209,13.7737683 149.008209,12.2007624 L149.008209,11.5031988 L149.008209,11.4857597 Z" id="Shape" fill-rule="nonzero"></path>
                        <path d="M102.007299,10.5543279 L102.007299,10.5128098 C102.005921,8.76255933 102.748266,7.08555772 104.066756,5.8603742 C105.385246,4.63519067 107.168729,3.96511127 109.014599,4.00140085 C113.029197,4.00140085 116,6.90420221 116,10.467832 L116,10.50935 C116,14.0418413 113.018248,17 108.959854,17 C104.945255,17 102,14.0971986 102,10.5543279 M112.989051,10.5543279 L112.989051,10.5128098 C112.989051,8.31927462 111.328467,6.50632121 108.974453,6.50632121 C106.620438,6.50632121 105,8.29505577 105,10.467832 L105,10.50935 C105,12.6821262 106.664234,14.5227583 109.014599,14.5227583 C111.456204,14.5227583 112.989051,12.6994254 112.989051,10.550868" id="Shape" fill-rule="nonzero"></path>
                        <path d="M22,4.26545059 L24.806192,4.26545059 L24.806192,6.24394228 C25.5996904,5.04056629 26.7371517,4 28.6374613,4 C31.3959752,4 33,5.9360196 33,8.89844814 L33,17 L30.1904025,17 L30.1904025,9.75850803 C30.1904025,7.77293765 29.2368421,6.64388783 27.5749226,6.64388783 C25.9130031,6.64388783 24.806192,7.82248843 24.806192,9.80451947 L24.806192,16.989382 L22,16.989382 L22,4.24775388 L22,4.26545059 Z" id="Shape" fill-rule="nonzero"></path>
                        <path d="M39.0034035,4.26545059 L41.8112624,4.26545059 L41.8112624,6.24394228 C42.6042698,5.04056629 43.7376238,4 45.6401609,4 C48.3969678,4 50,5.9360196 50,8.89844814 L50,17 L47.1921411,17 L47.1921411,9.75850803 C47.1921411,7.77293765 46.2391708,6.64388783 44.5680693,6.64388783 C42.8969678,6.64388783 41.8078589,7.82248843 41.8078589,9.80451947 L41.8078589,16.989382 L39,16.989382 L39,4.24775388 L39.0034035,4.26545059 Z" id="Shape" fill-rule="nonzero"></path>
                        <path d="M66.9926941,16.7419023 L64.4100457,15.4514141 C63.2703196,16.5361218 61.3561644,17 59.6794521,17 C57.1917808,17 55,15.6467312 55,13.1355108 L55,13.0901693 C55,10.2999244 57.2684932,8.97804589 60.3296804,8.97804589 C61.5692574,8.95425123 62.804181,9.12993548 63.9826484,9.49772901 L63.9826484,9.25358258 C63.9826484,7.50967951 62.8356164,6.56448405 60.7461187,6.56448405 C59.4487329,6.56931726 58.1673159,6.83803108 56.9872146,7.35272823 L56.147032,5.04728838 C57.7118216,4.33702498 59.4264422,3.97905907 61.1589041,4.00094654 C65.0420091,4.00094654 66.9342466,5.95411798 66.9342466,9.30589967 L66.9342466,16.7419023 L67,16.7419023 L66.9926941,16.7419023 Z M64.0118721,11.4892663 C63.0456749,11.1556946 62.0255879,10.9868738 60.9981735,10.99051 C59.109589,10.99051 57.9881279,11.7299249 57.9881279,12.9436815 L57.9881279,12.9890229 C57.9881279,14.1783648 59.1059361,14.8445358 60.5232877,14.8445358 C62.5214612,14.8445358 64.0118721,13.7772671 64.0118721,12.2042666 L64.0118721,11.5067053 L64.0118721,11.4892663 Z" id="Shape" fill-rule="nonzero"></path>
                    </g>
                </g>
            </g>
        </g>
    </g>
</svg>